<?xml version="1.0" encoding="UTF-8" standalone="no"?>
<!-- Created with Inkscape (http://www.inkscape.org/) -->

<svg
   xmlns:dc="http://purl.org/dc/elements/1.1/"
   xmlns:cc="http://creativecommons.org/ns#"
   xmlns:rdf="http://www.w3.org/1999/02/22-rdf-syntax-ns#"
   xmlns:svg="http://www.w3.org/2000/svg"
   xmlns="http://www.w3.org/2000/svg"
   xmlns:sodipodi="http://sodipodi.sourceforge.net/DTD/sodipodi-0.dtd"
   xmlns:inkscape="http://www.inkscape.org/namespaces/inkscape"
   width="512"
   height="512"
   viewBox="0 0 135.46666 135.46667"
   version="1.1"
   id="svg8"
   inkscape:version="0.92.4 (f8dce91, 2019-08-02)"
   sodipodi:docname="species.svg">
  <defs
     id="defs2" />
  <sodipodi:namedview
     id="base"
     pagecolor="#ffffff"
     bordercolor="#000000"
     borderopacity="0"
     inkscape:pageopacity="0.0"
     inkscape:pageshadow="2"
     inkscape:zoom="0.35"
     inkscape:cx="400"
     inkscape:cy="560"
     inkscape:document-units="mm"
     inkscape:current-layer="layer1"
     showgrid="false"
     units="px"
     inkscape:window-width="1920"
     inkscape:window-height="1052"
     inkscape:window-x="0"
     inkscape:window-y="0"
     inkscape:window-maximized="1" />
  <metadata
     id="metadata5">
    <rdf:RDF>
      <cc:Work
         rdf:about="">
        <dc:format>image/svg+xml</dc:format>
        <dc:type
           rdf:resource="http://purl.org/dc/dcmitype/StillImage" />
        <dc:title></dc:title>
      </cc:Work>
    </rdf:RDF>
  </metadata>
  <g
     inkscape:label="Layer 1"
     inkscape:groupmode="layer"
     id="layer1"
     transform="translate(0,-161.53332)">
    <g
       id="g4058"
       transform="matrix(0.09623293,0,0,0.09623293,83.798186,165.15186)">
      <g
         id="g4042">
	<g
   id="g4032">
		<path
   id="path4030"
   d="m 299.4,288 c 0,-13.9 11.3,-25.2 25.2,-25.2 13.9,0 25.2,11.3 25.2,25.2 0,13.9 -11.3,25.2 -25.2,25.2 -13.9,0 -25.2,-11.3 -25.2,-25.2 z"
   class="st0"
   inkscape:connector-curvature="0"
   style="fill:#c9cbcf" />

	</g>

	<g
   id="g4036">
		<path
   id="path4034"
   d="m 187.4,262.8 c 13.9,0 25.2,11.3 25.2,25.2 0,13.9 -11.3,25.2 -25.2,25.2 -13.9,0 -25.2,-11.3 -25.2,-25.2 0,-13.9 11.3,-25.2 25.2,-25.2 z"
   class="st0"
   inkscape:connector-curvature="0"
   style="fill:#c9cbcf" />

	</g>

	<g
   id="g4040">
		<path
   id="path4038"
   d="m 87.1,462.6 c 0,3.3 -2.7,6 -6,6 h -7.4 c -3.3,0 -6,-2.7 -6,-6 v -35.1 c 0,-3.3 2.7,-6 6,-6 h 7.4 c 3.3,0 6,2.7 6,6 z M 256,437.1 h -28.5 v -13.6 c 0,-4.4 3.6,-8 8,-8 h 41.1 c 4.4,0 8,3.6 8,8 v 13.6 z m 188.4,25.5 c 0,3.3 -2.7,6 -6,6 H 431 c -3.3,0 -6,-2.7 -6,-6 v -35.1 c 0,-3.3 2.7,-6 6,-6 h 7.4 c 3.3,0 6,2.7 6,6 z"
   class="st0"
   inkscape:connector-curvature="0"
   style="fill:#c9cbcf" />

	</g>

</g>
      <g
         id="g4056">
	<path
   id="path4044"
   d="m 365.9,288 c 0,-22.7 -18.5,-41.2 -41.2,-41.2 -22.7,0 -41.2,18.5 -41.2,41.2 0,22.7 18.5,41.2 41.2,41.2 22.7,0 41.2,-18.4 41.2,-41.2 z m -66.5,0 c 0,-13.9 11.3,-25.2 25.2,-25.2 13.9,0 25.2,11.3 25.2,25.2 0,13.9 -11.3,25.2 -25.2,25.2 -13.9,0 -25.2,-11.3 -25.2,-25.2 z"
   class="st1"
   inkscape:connector-curvature="0"
   style="fill:#555e6b" />

	<circle
   id="circle4046"
   r="10"
   cy="288"
   cx="324.60001"
   class="st1"
   style="fill:#555e6b" />

	<path
   id="path4048"
   d="m 187.4,329.2 c 22.7,0 41.2,-18.5 41.2,-41.2 0,-22.7 -18.5,-41.2 -41.2,-41.2 -22.7,0 -41.2,18.5 -41.2,41.2 0,22.7 18.4,41.2 41.2,41.2 z m 0,-66.4 c 13.9,0 25.2,11.3 25.2,25.2 0,13.9 -11.3,25.2 -25.2,25.2 -13.9,0 -25.2,-11.3 -25.2,-25.2 0,-13.9 11.3,-25.2 25.2,-25.2 z"
   class="st1"
   inkscape:connector-curvature="0"
   style="fill:#555e6b" />

	<circle
   id="circle4050"
   r="10"
   cy="288"
   cx="187.39999"
   class="st1"
   style="fill:#555e6b" />

	<path
   id="path4052"
   d="m 233.5,389.9 c 1.8,0 3.7,-0.6 5.2,-1.9 l 17.4,-14.7 17.4,14.7 c 3.4,2.8 8.4,2.4 11.3,-1 2.8,-3.4 2.4,-8.4 -1,-11.3 l -19.6,-16.5 c -4.6,-4 -11.6,-4 -16.2,0 l -19.6,16.5 c -3.4,2.8 -3.8,7.9 -1,11.3 1.5,2 3.8,2.9 6.1,2.9 z"
   class="st1"
   inkscape:connector-curvature="0"
   style="fill:#555e6b" />

	<path
   id="path4054"
   d="m 477.2,275 -11.7,-11.2 c -1.9,-1.8 -2.9,-4.3 -3,-6.9 -0.3,-29.7 -2.5,-54 -6.8,-76.5 C 449,145.6 436.9,116.1 419.6,92.8 400.7,67.2 375.4,47.6 344.4,34.7 334.2,30.4 323.5,27 312.8,24.3 304.9,22.4 297.2,19.8 290,16.7 284.7,14.5 279.4,11.1 273.5,6.3 c -5,-4 -11.2,-6.2 -17.6,-6.2 -6.4,0 -12.6,2.2 -17.6,6.2 -5.8,4.7 -11.2,8.1 -16.5,10.4 -7.3,3.1 -14.9,5.7 -22.8,7.6 -10.8,2.6 -21.4,6.1 -31.6,10.4 -30.8,12.8 -56.1,32.3 -75,58 -17.3,23.3 -29.4,52.8 -36.1,87.6 -4.3,22.5 -6.5,46.9 -6.8,76.5 0,2.6 -1.1,5.1 -3,6.9 L 34.8,275 c -6.4,6.1 -9.1,14.9 -7.4,23.6 L 39,355.9 c 1.7,8.2 7.3,15.2 15,18.5 l 9.2,4 c 2.7,1.2 4.7,3.4 5.5,6.2 1.4,4.7 1.1,14.4 0.9,21.2 -10.2,1.9 -17.9,10.9 -17.9,21.6 v 35.1 c 0,12.1 9.9,22 22,22 h 7.4 c 12.1,0 22,-9.9 22,-22 v -9.6 h 28.2 c 3,6.8 5.5,12.3 7.5,16.2 2.4,5.1 6.6,9.3 11.6,11.8 55.5,28.1 92.3,31.1 105.6,31.1 13.3,0 50.1,-3 105.7,-30.8 5.1,-2.5 9.2,-6.7 11.6,-11.8 1.9,-4 4.5,-9.5 7.5,-16.2 H 409 v 9.6 c 0,12.1 9.9,22 22,22 h 7.4 c 12.1,0 22,-9.9 22,-22 v -35.1 c 0,-10.7 -7.7,-19.7 -17.9,-21.6 -0.2,-6.8 -0.5,-16.6 0.9,-21.2 0.8,-2.8 2.8,-5.1 5.5,-6.2 l 9.2,-4 c 7.7,-3.3 13.3,-10.3 15,-18.5 l 11.5,-57.4 c 1.7,-8.9 -1.1,-17.7 -7.4,-23.8 z M 87.1,462.6 c 0,3.3 -2.7,6 -6,6 h -7.4 c -3.3,0 -6,-2.7 -6,-6 v -35.1 c 0,-3.3 2.7,-6 6,-6 h 7.4 c 3.3,0 6,2.7 6,6 z m 271.8,-0.2 c -0.9,2 -2.5,3.5 -4.4,4.5 -13.6,6.8 -61,29.1 -98.5,29.1 -37.5,0 -84.9,-22.3 -98.5,-29.1 -1.9,-1 -3.4,-2.5 -4.4,-4.5 -1.5,-3.1 -3,-6.2 -4.4,-9.3 h 62.7 v 0 h 89.1 v 0 h 62.7 c -1.4,3 -2.8,6.1 -4.3,9.3 z M 256,251.1 C 242.7,226.4 216.5,210 187.3,210 c -31.5,0 -57.5,19.2 -67.8,49.4 h -18.6 c 0.3,-41.2 4.5,-97.9 32.9,-136.3 C 168.5,76 225.3,69 256.1,69 c 71.6,0 107.4,33.9 122.3,54.1 13.9,18.8 32.2,53.2 32.9,136.3 H 392.7 C 382.4,229.2 356.4,210 324.9,210 c -29.4,0.1 -55.6,16.4 -68.9,41.1 z m -124.4,24.4 1.6,-6 c 6.9,-26.8 27.7,-43.4 54.1,-43.4 29.3,0 54.7,20.7 60.7,49.2 v 25.4 c -4.5,20.7 -20.1,36.6 -42.1,42.5 -4.3,1.2 -6.8,5.5 -5.6,9.8 1,3.6 4.2,5.9 7.7,5.9 0.7,0 1.4,-0.1 2.1,-0.3 20.3,-5.5 36.4,-17.8 45.9,-34.5 9.5,16.6 25.6,29 45.9,34.5 0.7,0.2 1.4,0.3 2.1,0.3 3.5,0 6.8,-2.3 7.7,-5.9 1.2,-4.3 -1.4,-8.7 -5.6,-9.8 -21.9,-5.9 -37.6,-21.8 -42.1,-42.5 v -25.4 c 6,-28.6 31.4,-49.2 60.7,-49.2 26.4,0 47.1,16.6 54.1,43.4 l 1.6,6 h 30.5 c -1.3,27.4 -8.3,86.1 -40.5,161.6 h -69.8 v -13.6 c 0,-13.2 -10.8,-24 -24,-24 h -41.1 c -13.2,0 -24,10.8 -24,24 v 13.6 H 141.7 C 109.5,361.6 102.5,302.9 101.2,275.5 Z M 256,437.1 h -28.5 v -13.6 c 0,-4.4 3.6,-8 8,-8 h 41.1 c 4.4,0 8,3.6 8,8 v 13.6 z m 188.4,25.5 c 0,3.3 -2.7,6 -6,6 H 431 c -3.3,0 -6,-2.7 -6,-6 v -35.1 c 0,-3.3 2.7,-6 6,-6 h 7.4 c 3.3,0 6,2.7 6,6 z m 24.5,-167.2 -11.5,57.4 c -0.6,3.1 -2.7,5.7 -5.7,7 l -9.2,4 c -7,3.1 -12.3,9.1 -14.5,16.5 -2,6.9 -1.8,17.2 -1.5,25.8 -10,2.1 -17.5,10.9 -17.5,21.5 v 9.6 h -21.4 c 16.6,-40.6 38.8,-106.5 39.6,-169.5 0,0 0,-0.1 0,-0.1 0,0 0,0 0,-0.1 0,-1 0,-2.1 0,-3.1 0,-30.7 -2,-55.3 -6.2,-77.3 -5.8,-30 -15.5,-53.9 -29.8,-73.3 -15.1,-20.4 -35.3,-36 -60.3,-46.4 -22.2,-9.2 -48,-14.1 -74.8,-14.1 -26.8,0 -52.7,4.9 -74.8,14.1 -24.9,10.4 -45.2,26 -60.3,46.4 C 106.6,133 96.8,157 91.1,187 c -4.2,22 -6.2,46.6 -6.2,77.3 0,1 0,2.1 0,3.1 0,0 0,0 0,0.1 0,0 0,0.1 0,0.1 0.8,63 23,128.9 39.6,169.5 h -21.4 v -9.6 c 0,-10.6 -7.5,-19.5 -17.5,-21.5 0.3,-8.6 0.5,-18.8 -1.5,-25.8 -2.2,-7.4 -7.4,-13.4 -14.5,-16.5 l -9.2,-4 c -2.9,-1.3 -5,-3.9 -5.7,-7 L 43.2,295.3 c -0.7,-3.3 0.4,-6.6 2.8,-8.9 l 11.7,-11.2 c 4.9,-4.8 7.8,-11.4 7.9,-18.3 0.3,-28.7 2.4,-52.1 6.5,-73.7 6.2,-32.4 17.4,-59.7 33.2,-81.1 17.2,-23.3 40.2,-41 68.4,-52.8 9.4,-3.9 19.3,-7.2 29.2,-9.6 8.7,-2.1 17.3,-5 25.3,-8.4 6.6,-2.8 13.3,-7 20.3,-12.7 2.1,-1.7 4.7,-2.7 7.5,-2.7 2.8,0 5.4,0.9 7.5,2.7 7,5.7 13.6,9.8 20.3,12.7 8.1,3.5 16.6,6.3 25.3,8.4 9.9,2.4 19.8,5.6 29.2,9.6 28.2,11.8 51.3,29.6 68.4,52.8 15.8,21.4 27,48.7 33.2,81.1 4.2,21.6 6.2,45 6.5,73.7 0.1,6.9 2.9,13.5 7.9,18.3 l 11.7,11.2 c 2.5,2.4 3.5,5.7 2.9,9 z"
   class="st1"
   inkscape:connector-curvature="0"
   style="fill:#555e6b" />

</g>
    </g>
    <g
       transform="matrix(0.09623293,0,0,0.09623293,83.798186,165.15186)"
       id="g4088">
      <g
         id="g4072">
	<g
   id="g4062">
		<path
   style="fill:#c9cbcf"
   inkscape:connector-curvature="0"
   class="st0"
   d="m 299.4,288 c 0,-13.9 11.3,-25.2 25.2,-25.2 13.9,0 25.2,11.3 25.2,25.2 0,13.9 -11.3,25.2 -25.2,25.2 -13.9,0 -25.2,-11.3 -25.2,-25.2 z"
   id="path4060" />

	</g>

	<g
   id="g4066">
		<path
   style="fill:#c9cbcf"
   inkscape:connector-curvature="0"
   class="st0"
   d="m 187.4,262.8 c 13.9,0 25.2,11.3 25.2,25.2 0,13.9 -11.3,25.2 -25.2,25.2 -13.9,0 -25.2,-11.3 -25.2,-25.2 0,-13.9 11.3,-25.2 25.2,-25.2 z"
   id="path4064" />

	</g>

	<g
   id="g4070">
		<path
   style="fill:#c9cbcf"
   inkscape:connector-curvature="0"
   class="st0"
   d="m 87.1,462.6 c 0,3.3 -2.7,6 -6,6 h -7.4 c -3.3,0 -6,-2.7 -6,-6 v -35.1 c 0,-3.3 2.7,-6 6,-6 h 7.4 c 3.3,0 6,2.7 6,6 z M 256,437.1 h -28.5 v -13.6 c 0,-4.4 3.6,-8 8,-8 h 41.1 c 4.4,0 8,3.6 8,8 v 13.6 z m 188.4,25.5 c 0,3.3 -2.7,6 -6,6 H 431 c -3.3,0 -6,-2.7 -6,-6 v -35.1 c 0,-3.3 2.7,-6 6,-6 h 7.4 c 3.3,0 6,2.7 6,6 z"
   id="path4068" />

	</g>

</g>
      <g
         id="g4086">
	<path
   style="fill:#555e6b"
   inkscape:connector-curvature="0"
   class="st1"
   d="m 365.9,288 c 0,-22.7 -18.5,-41.2 -41.2,-41.2 -22.7,0 -41.2,18.5 -41.2,41.2 0,22.7 18.5,41.2 41.2,41.2 22.7,0 41.2,-18.4 41.2,-41.2 z m -66.5,0 c 0,-13.9 11.3,-25.2 25.2,-25.2 13.9,0 25.2,11.3 25.2,25.2 0,13.9 -11.3,25.2 -25.2,25.2 -13.9,0 -25.2,-11.3 -25.2,-25.2 z"
   id="path4074" />

	<circle
   style="fill:#555e6b"
   class="st1"
   cx="324.60001"
   cy="288"
   r="10"
   id="circle4076" />

	<path
   style="fill:#555e6b"
   inkscape:connector-curvature="0"
   class="st1"
   d="m 187.4,329.2 c 22.7,0 41.2,-18.5 41.2,-41.2 0,-22.7 -18.5,-41.2 -41.2,-41.2 -22.7,0 -41.2,18.5 -41.2,41.2 0,22.7 18.4,41.2 41.2,41.2 z m 0,-66.4 c 13.9,0 25.2,11.3 25.2,25.2 0,13.9 -11.3,25.2 -25.2,25.2 -13.9,0 -25.2,-11.3 -25.2,-25.2 0,-13.9 11.3,-25.2 25.2,-25.2 z"
   id="path4078" />

	<circle
   style="fill:#555e6b"
   class="st1"
   cx="187.39999"
   cy="288"
   r="10"
   id="circle4080" />

	<path
   style="fill:#555e6b"
   inkscape:connector-curvature="0"
   class="st1"
   d="m 233.5,389.9 c 1.8,0 3.7,-0.6 5.2,-1.9 l 17.4,-14.7 17.4,14.7 c 3.4,2.8 8.4,2.4 11.3,-1 2.8,-3.4 2.4,-8.4 -1,-11.3 l -19.6,-16.5 c -4.6,-4 -11.6,-4 -16.2,0 l -19.6,16.5 c -3.4,2.8 -3.8,7.9 -1,11.3 1.5,2 3.8,2.9 6.1,2.9 z"
   id="path4082" />

	<path
   style="fill:#555e6b"
   inkscape:connector-curvature="0"
   class="st1"
   d="m 477.2,275 -11.7,-11.2 c -1.9,-1.8 -2.9,-4.3 -3,-6.9 -0.3,-29.7 -2.5,-54 -6.8,-76.5 C 449,145.6 436.9,116.1 419.6,92.8 400.7,67.2 375.4,47.6 344.4,34.7 334.2,30.4 323.5,27 312.8,24.3 304.9,22.4 297.2,19.8 290,16.7 284.7,14.5 279.4,11.1 273.5,6.3 c -5,-4 -11.2,-6.2 -17.6,-6.2 -6.4,0 -12.6,2.2 -17.6,6.2 -5.8,4.7 -11.2,8.1 -16.5,10.4 -7.3,3.1 -14.9,5.7 -22.8,7.6 -10.8,2.6 -21.4,6.1 -31.6,10.4 -30.8,12.8 -56.1,32.3 -75,58 -17.3,23.3 -29.4,52.8 -36.1,87.6 -4.3,22.5 -6.5,46.9 -6.8,76.5 0,2.6 -1.1,5.1 -3,6.9 L 34.8,275 c -6.4,6.1 -9.1,14.9 -7.4,23.6 L 39,355.9 c 1.7,8.2 7.3,15.2 15,18.5 l 9.2,4 c 2.7,1.2 4.7,3.4 5.5,6.2 1.4,4.7 1.1,14.4 0.9,21.2 -10.2,1.9 -17.9,10.9 -17.9,21.6 v 35.1 c 0,12.1 9.9,22 22,22 h 7.4 c 12.1,0 22,-9.9 22,-22 v -9.6 h 28.2 c 3,6.8 5.5,12.3 7.5,16.2 2.4,5.1 6.6,9.3 11.6,11.8 55.5,28.1 92.3,31.1 105.6,31.1 13.3,0 50.1,-3 105.7,-30.8 5.1,-2.5 9.2,-6.7 11.6,-11.8 1.9,-4 4.5,-9.5 7.5,-16.2 H 409 v 9.6 c 0,12.1 9.9,22 22,22 h 7.4 c 12.1,0 22,-9.9 22,-22 v -35.1 c 0,-10.7 -7.7,-19.7 -17.9,-21.6 -0.2,-6.8 -0.5,-16.6 0.9,-21.2 0.8,-2.8 2.8,-5.1 5.5,-6.2 l 9.2,-4 c 7.7,-3.3 13.3,-10.3 15,-18.5 l 11.5,-57.4 c 1.7,-8.9 -1.1,-17.7 -7.4,-23.8 z M 87.1,462.6 c 0,3.3 -2.7,6 -6,6 h -7.4 c -3.3,0 -6,-2.7 -6,-6 v -35.1 c 0,-3.3 2.7,-6 6,-6 h 7.4 c 3.3,0 6,2.7 6,6 z m 271.8,-0.2 c -0.9,2 -2.5,3.5 -4.4,4.5 -13.6,6.8 -61,29.1 -98.5,29.1 -37.5,0 -84.9,-22.3 -98.5,-29.1 -1.9,-1 -3.4,-2.5 -4.4,-4.5 -1.5,-3.1 -3,-6.2 -4.4,-9.3 h 62.7 v 0 h 89.1 v 0 h 62.7 c -1.4,3 -2.8,6.1 -4.3,9.3 z M 256,251.1 C 242.7,226.4 216.5,210 187.3,210 c -31.5,0 -57.5,19.2 -67.8,49.4 h -18.6 c 0.3,-41.2 4.5,-97.9 32.9,-136.3 C 168.5,76 225.3,69 256.1,69 c 71.6,0 107.4,33.9 122.3,54.1 13.9,18.8 32.2,53.2 32.9,136.3 H 392.7 C 382.4,229.2 356.4,210 324.9,210 c -29.4,0.1 -55.6,16.4 -68.9,41.1 z m -124.4,24.4 1.6,-6 c 6.9,-26.8 27.7,-43.4 54.1,-43.4 29.3,0 54.7,20.7 60.7,49.2 v 25.4 c -4.5,20.7 -20.1,36.6 -42.1,42.5 -4.3,1.2 -6.8,5.5 -5.6,9.8 1,3.6 4.2,5.9 7.7,5.9 0.7,0 1.4,-0.1 2.1,-0.3 20.3,-5.5 36.4,-17.8 45.9,-34.5 9.5,16.6 25.6,29 45.9,34.5 0.7,0.2 1.4,0.3 2.1,0.3 3.5,0 6.8,-2.3 7.7,-5.9 1.2,-4.3 -1.4,-8.7 -5.6,-9.8 -21.9,-5.9 -37.6,-21.8 -42.1,-42.5 v -25.4 c 6,-28.6 31.4,-49.2 60.7,-49.2 26.4,0 47.1,16.6 54.1,43.4 l 1.6,6 h 30.5 c -1.3,27.4 -8.3,86.1 -40.5,161.6 h -69.8 v -13.6 c 0,-13.2 -10.8,-24 -24,-24 h -41.1 c -13.2,0 -24,10.8 -24,24 v 13.6 H 141.7 C 109.5,361.6 102.5,302.9 101.2,275.5 Z M 256,437.1 h -28.5 v -13.6 c 0,-4.4 3.6,-8 8,-8 h 41.1 c 4.4,0 8,3.6 8,8 v 13.6 z m 188.4,25.5 c 0,3.3 -2.7,6 -6,6 H 431 c -3.3,0 -6,-2.7 -6,-6 v -35.1 c 0,-3.3 2.7,-6 6,-6 h 7.4 c 3.3,0 6,2.7 6,6 z m 24.5,-167.2 -11.5,57.4 c -0.6,3.1 -2.7,5.7 -5.7,7 l -9.2,4 c -7,3.1 -12.3,9.1 -14.5,16.5 -2,6.9 -1.8,17.2 -1.5,25.8 -10,2.1 -17.5,10.9 -17.5,21.5 v 9.6 h -21.4 c 16.6,-40.6 38.8,-106.5 39.6,-169.5 0,0 0,-0.1 0,-0.1 0,0 0,0 0,-0.1 0,-1 0,-2.1 0,-3.1 0,-30.7 -2,-55.3 -6.2,-77.3 -5.8,-30 -15.5,-53.9 -29.8,-73.3 -15.1,-20.4 -35.3,-36 -60.3,-46.4 -22.2,-9.2 -48,-14.1 -74.8,-14.1 -26.8,0 -52.7,4.9 -74.8,14.1 -24.9,10.4 -45.2,26 -60.3,46.4 C 106.6,133 96.8,157 91.1,187 c -4.2,22 -6.2,46.6 -6.2,77.3 0,1 0,2.1 0,3.1 0,0 0,0 0,0.1 0,0 0,0.1 0,0.1 0.8,63 23,128.9 39.6,169.5 h -21.4 v -9.6 c 0,-10.6 -7.5,-19.5 -17.5,-21.5 0.3,-8.6 0.5,-18.8 -1.5,-25.8 -2.2,-7.4 -7.4,-13.4 -14.5,-16.5 l -9.2,-4 c -2.9,-1.3 -5,-3.9 -5.7,-7 L 43.2,295.3 c -0.7,-3.3 0.4,-6.6 2.8,-8.9 l 11.7,-11.2 c 4.9,-4.8 7.8,-11.4 7.9,-18.3 0.3,-28.7 2.4,-52.1 6.5,-73.7 6.2,-32.4 17.4,-59.7 33.2,-81.1 17.2,-23.3 40.2,-41 68.4,-52.8 9.4,-3.9 19.3,-7.2 29.2,-9.6 8.7,-2.1 17.3,-5 25.3,-8.4 6.6,-2.8 13.3,-7 20.3,-12.7 2.1,-1.7 4.7,-2.7 7.5,-2.7 2.8,0 5.4,0.9 7.5,2.7 7,5.7 13.6,9.8 20.3,12.7 8.1,3.5 16.6,6.3 25.3,8.4 9.9,2.4 19.8,5.6 29.2,9.6 28.2,11.8 51.3,29.6 68.4,52.8 15.8,21.4 27,48.7 33.2,81.1 4.2,21.6 6.2,45 6.5,73.7 0.1,6.9 2.9,13.5 7.9,18.3 l 11.7,11.2 c 2.5,2.4 3.5,5.7 2.9,9 z"
   id="path4084" />

</g>
    </g>
    <g
       id="g4118"
       transform="matrix(0.09623293,0,0,0.09623293,83.798186,165.15186)">
      <g
         id="g4102">
	<g
   id="g4092">
		<path
   id="path4090"
   d="m 299.4,288 c 0,-13.9 11.3,-25.2 25.2,-25.2 13.9,0 25.2,11.3 25.2,25.2 0,13.9 -11.3,25.2 -25.2,25.2 -13.9,0 -25.2,-11.3 -25.2,-25.2 z"
   class="st0"
   inkscape:connector-curvature="0"
   style="fill:#c9cbcf" />

	</g>

	<g
   id="g4096">
		<path
   id="path4094"
   d="m 187.4,262.8 c 13.9,0 25.2,11.3 25.2,25.2 0,13.9 -11.3,25.2 -25.2,25.2 -13.9,0 -25.2,-11.3 -25.2,-25.2 0,-13.9 11.3,-25.2 25.2,-25.2 z"
   class="st0"
   inkscape:connector-curvature="0"
   style="fill:#c9cbcf" />

	</g>

	<g
   id="g4100">
		<path
   id="path4098"
   d="m 87.1,462.6 c 0,3.3 -2.7,6 -6,6 h -7.4 c -3.3,0 -6,-2.7 -6,-6 v -35.1 c 0,-3.3 2.7,-6 6,-6 h 7.4 c 3.3,0 6,2.7 6,6 z M 256,437.1 h -28.5 v -13.6 c 0,-4.4 3.6,-8 8,-8 h 41.1 c 4.4,0 8,3.6 8,8 v 13.6 z m 188.4,25.5 c 0,3.3 -2.7,6 -6,6 H 431 c -3.3,0 -6,-2.7 -6,-6 v -35.1 c 0,-3.3 2.7,-6 6,-6 h 7.4 c 3.3,0 6,2.7 6,6 z"
   class="st0"
   inkscape:connector-curvature="0"
   style="fill:#c9cbcf" />

	</g>

</g>
      <g
         id="g4116">
	<path
   id="path4104"
   d="m 365.9,288 c 0,-22.7 -18.5,-41.2 -41.2,-41.2 -22.7,0 -41.2,18.5 -41.2,41.2 0,22.7 18.5,41.2 41.2,41.2 22.7,0 41.2,-18.4 41.2,-41.2 z m -66.5,0 c 0,-13.9 11.3,-25.2 25.2,-25.2 13.9,0 25.2,11.3 25.2,25.2 0,13.9 -11.3,25.2 -25.2,25.2 -13.9,0 -25.2,-11.3 -25.2,-25.2 z"
   class="st1"
   inkscape:connector-curvature="0"
   style="fill:#555e6b" />

	<circle
   id="circle4106"
   r="10"
   cy="288"
   cx="324.60001"
   class="st1"
   style="fill:#555e6b" />

	<path
   id="path4108"
   d="m 187.4,329.2 c 22.7,0 41.2,-18.5 41.2,-41.2 0,-22.7 -18.5,-41.2 -41.2,-41.2 -22.7,0 -41.2,18.5 -41.2,41.2 0,22.7 18.4,41.2 41.2,41.2 z m 0,-66.4 c 13.9,0 25.2,11.3 25.2,25.2 0,13.9 -11.3,25.2 -25.2,25.2 -13.9,0 -25.2,-11.3 -25.2,-25.2 0,-13.9 11.3,-25.2 25.2,-25.2 z"
   class="st1"
   inkscape:connector-curvature="0"
   style="fill:#555e6b" />

	<circle
   id="circle4110"
   r="10"
   cy="288"
   cx="187.39999"
   class="st1"
   style="fill:#555e6b" />

	<path
   id="path4112"
   d="m 233.5,389.9 c 1.8,0 3.7,-0.6 5.2,-1.9 l 17.4,-14.7 17.4,14.7 c 3.4,2.8 8.4,2.4 11.3,-1 2.8,-3.4 2.4,-8.4 -1,-11.3 l -19.6,-16.5 c -4.6,-4 -11.6,-4 -16.2,0 l -19.6,16.5 c -3.4,2.8 -3.8,7.9 -1,11.3 1.5,2 3.8,2.9 6.1,2.9 z"
   class="st1"
   inkscape:connector-curvature="0"
   style="fill:#555e6b" />

	<path
   id="path4114"
   d="m 477.2,275 -11.7,-11.2 c -1.9,-1.8 -2.9,-4.3 -3,-6.9 -0.3,-29.7 -2.5,-54 -6.8,-76.5 C 449,145.6 436.9,116.1 419.6,92.8 400.7,67.2 375.4,47.6 344.4,34.7 334.2,30.4 323.5,27 312.8,24.3 304.9,22.4 297.2,19.8 290,16.7 284.7,14.5 279.4,11.1 273.5,6.3 c -5,-4 -11.2,-6.2 -17.6,-6.2 -6.4,0 -12.6,2.2 -17.6,6.2 -5.8,4.7 -11.2,8.1 -16.5,10.4 -7.3,3.1 -14.9,5.7 -22.8,7.6 -10.8,2.6 -21.4,6.1 -31.6,10.4 -30.8,12.8 -56.1,32.3 -75,58 -17.3,23.3 -29.4,52.8 -36.1,87.6 -4.3,22.5 -6.5,46.9 -6.8,76.5 0,2.6 -1.1,5.1 -3,6.9 L 34.8,275 c -6.4,6.1 -9.1,14.9 -7.4,23.6 L 39,355.9 c 1.7,8.2 7.3,15.2 15,18.5 l 9.2,4 c 2.7,1.2 4.7,3.4 5.5,6.2 1.4,4.7 1.1,14.4 0.9,21.2 -10.2,1.9 -17.9,10.9 -17.9,21.6 v 35.1 c 0,12.1 9.9,22 22,22 h 7.4 c 12.1,0 22,-9.9 22,-22 v -9.6 h 28.2 c 3,6.8 5.5,12.3 7.5,16.2 2.4,5.1 6.6,9.3 11.6,11.8 55.5,28.1 92.3,31.1 105.6,31.1 13.3,0 50.1,-3 105.7,-30.8 5.1,-2.5 9.2,-6.7 11.6,-11.8 1.9,-4 4.5,-9.5 7.5,-16.2 H 409 v 9.6 c 0,12.1 9.9,22 22,22 h 7.4 c 12.1,0 22,-9.9 22,-22 v -35.1 c 0,-10.7 -7.7,-19.7 -17.9,-21.6 -0.2,-6.8 -0.5,-16.6 0.9,-21.2 0.8,-2.8 2.8,-5.1 5.5,-6.2 l 9.2,-4 c 7.7,-3.3 13.3,-10.3 15,-18.5 l 11.5,-57.4 c 1.7,-8.9 -1.1,-17.7 -7.4,-23.8 z M 87.1,462.6 c 0,3.3 -2.7,6 -6,6 h -7.4 c -3.3,0 -6,-2.7 -6,-6 v -35.1 c 0,-3.3 2.7,-6 6,-6 h 7.4 c 3.3,0 6,2.7 6,6 z m 271.8,-0.2 c -0.9,2 -2.5,3.5 -4.4,4.5 -13.6,6.8 -61,29.1 -98.5,29.1 -37.5,0 -84.9,-22.3 -98.5,-29.1 -1.9,-1 -3.4,-2.5 -4.4,-4.5 -1.5,-3.1 -3,-6.2 -4.4,-9.3 h 62.7 v 0 h 89.1 v 0 h 62.7 c -1.4,3 -2.8,6.1 -4.3,9.3 z M 256,251.1 C 242.7,226.4 216.5,210 187.3,210 c -31.5,0 -57.5,19.2 -67.8,49.4 h -18.6 c 0.3,-41.2 4.5,-97.9 32.9,-136.3 C 168.5,76 225.3,69 256.1,69 c 71.6,0 107.4,33.9 122.3,54.1 13.9,18.8 32.2,53.2 32.9,136.3 H 392.7 C 382.4,229.2 356.4,210 324.9,210 c -29.4,0.1 -55.6,16.4 -68.9,41.1 z m -124.4,24.4 1.6,-6 c 6.9,-26.8 27.7,-43.4 54.1,-43.4 29.3,0 54.7,20.7 60.7,49.2 v 25.4 c -4.5,20.7 -20.1,36.6 -42.1,42.5 -4.3,1.2 -6.8,5.5 -5.6,9.8 1,3.6 4.2,5.9 7.7,5.9 0.7,0 1.4,-0.1 2.1,-0.3 20.3,-5.5 36.4,-17.8 45.9,-34.5 9.5,16.6 25.6,29 45.9,34.5 0.7,0.2 1.4,0.3 2.1,0.3 3.5,0 6.8,-2.3 7.7,-5.9 1.2,-4.3 -1.4,-8.7 -5.6,-9.8 -21.9,-5.9 -37.6,-21.8 -42.1,-42.5 v -25.4 c 6,-28.6 31.4,-49.2 60.7,-49.2 26.4,0 47.1,16.6 54.1,43.4 l 1.6,6 h 30.5 c -1.3,27.4 -8.3,86.1 -40.5,161.6 h -69.8 v -13.6 c 0,-13.2 -10.8,-24 -24,-24 h -41.1 c -13.2,0 -24,10.8 -24,24 v 13.6 H 141.7 C 109.5,361.6 102.5,302.9 101.2,275.5 Z M 256,437.1 h -28.5 v -13.6 c 0,-4.4 3.6,-8 8,-8 h 41.1 c 4.4,0 8,3.6 8,8 v 13.6 z m 188.4,25.5 c 0,3.3 -2.7,6 -6,6 H 431 c -3.3,0 -6,-2.7 -6,-6 v -35.1 c 0,-3.3 2.7,-6 6,-6 h 7.4 c 3.3,0 6,2.7 6,6 z m 24.5,-167.2 -11.5,57.4 c -0.6,3.1 -2.7,5.7 -5.7,7 l -9.2,4 c -7,3.1 -12.3,9.1 -14.5,16.5 -2,6.9 -1.8,17.2 -1.5,25.8 -10,2.1 -17.5,10.9 -17.5,21.5 v 9.6 h -21.4 c 16.6,-40.6 38.8,-106.5 39.6,-169.5 0,0 0,-0.1 0,-0.1 0,0 0,0 0,-0.1 0,-1 0,-2.1 0,-3.1 0,-30.7 -2,-55.3 -6.2,-77.3 -5.8,-30 -15.5,-53.9 -29.8,-73.3 -15.1,-20.4 -35.3,-36 -60.3,-46.4 -22.2,-9.2 -48,-14.1 -74.8,-14.1 -26.8,0 -52.7,4.9 -74.8,14.1 -24.9,10.4 -45.2,26 -60.3,46.4 C 106.6,133 96.8,157 91.1,187 c -4.2,22 -6.2,46.6 -6.2,77.3 0,1 0,2.1 0,3.1 0,0 0,0 0,0.1 0,0 0,0.1 0,0.1 0.8,63 23,128.9 39.6,169.5 h -21.4 v -9.6 c 0,-10.6 -7.5,-19.5 -17.5,-21.5 0.3,-8.6 0.5,-18.8 -1.5,-25.8 -2.2,-7.4 -7.4,-13.4 -14.5,-16.5 l -9.2,-4 c -2.9,-1.3 -5,-3.9 -5.7,-7 L 43.2,295.3 c -0.7,-3.3 0.4,-6.6 2.8,-8.9 l 11.7,-11.2 c 4.9,-4.8 7.8,-11.4 7.9,-18.3 0.3,-28.7 2.4,-52.1 6.5,-73.7 6.2,-32.4 17.4,-59.7 33.2,-81.1 17.2,-23.3 40.2,-41 68.4,-52.8 9.4,-3.9 19.3,-7.2 29.2,-9.6 8.7,-2.1 17.3,-5 25.3,-8.4 6.6,-2.8 13.3,-7 20.3,-12.7 2.1,-1.7 4.7,-2.7 7.5,-2.7 2.8,0 5.4,0.9 7.5,2.7 7,5.7 13.6,9.8 20.3,12.7 8.1,3.5 16.6,6.3 25.3,8.4 9.9,2.4 19.8,5.6 29.2,9.6 28.2,11.8 51.3,29.6 68.4,52.8 15.8,21.4 27,48.7 33.2,81.1 4.2,21.6 6.2,45 6.5,73.7 0.1,6.9 2.9,13.5 7.9,18.3 l 11.7,11.2 c 2.5,2.4 3.5,5.7 2.9,9 z"
   class="st1"
   inkscape:connector-curvature="0"
   style="fill:#555e6b" />

</g>
    </g>
    <g
       id="g4154"
       transform="matrix(0.13314229,0,0,0.13314229,3.3325246,233.40547)">
      <g
         id="g4126">
	<g
   id="g4124">
		<path
   id="path4122"
   d="M 65.8,257.5 C 60.7,250 51.6,244.6 38.5,241.3 c -7.9,-2 -15.6,-2.8 -21,-3.3 0.4,-0.9 1,-1.8 1.6,-2.8 0.7,-1 1.4,-2.1 2.3,-3.2 12,1 49.4,5.7 71,28.6 1.6,1.7 3.7,2.5 5.8,2.5 2,0 3.9,-0.7 5.5,-2.2 3.2,-3 3.4,-8.1 0.3,-11.3 C 84.5,229 55.7,220.9 36.9,217.7 c 2.5,-1.3 5.1,-2.1 7.6,-2.1 0.2,0 0.3,0 0.5,0 11.7,0.5 40.6,8.6 50.7,11.7 l 0.6,0.2 0.6,0.1 c 0.6,0.1 1.2,0.2 1.8,0.2 6.1,0.6 12.1,-0.3 17.5,-2.5 -2.2,18.1 -2.3,44.4 6.3,77.6 -31,-14.7 -51.6,-37.8 -56.7,-45.4 z m 66.5,-31 c 0.1,-0.4 0.1,-0.8 0.2,-1.2 3.1,-4.6 14.3,-20.8 29,-30.1 16.5,-10.4 27.7,-10.4 33.1,-10.4 h 0.5 c 5.2,0 24.3,8.7 32.6,20.1 1.6,2.2 3.9,3.6 6.6,4.9 -2.1,2.3 -4.3,4.8 -6.4,7.4 -6.7,-6.8 -17.7,-13.5 -35.2,-13.5 -27.2,0 -39.4,18 -43.4,25.7 z m 230.3,3 c -4,-7.7 -16.2,-25.7 -43.4,-25.7 -17.5,0 -28.5,6.6 -35.2,13.5 -2.1,-2.7 -4.3,-5.1 -6.4,-7.4 2.7,-1.2 5,-2.7 6.6,-4.9 8.3,-11.4 27.4,-20.1 32.6,-20.1 h 0.5 c 5.4,0 16.7,0 33.1,10.4 14.8,9.3 26.2,25.7 29.1,30.2 0,0.3 0.1,0.7 0.1,1.1 z m 83.6,28 c -5.1,7.6 -25.7,30.7 -56.7,45.6 8.6,-33.3 8.5,-59.6 6.3,-77.6 5.4,2.2 11.4,3.1 17.5,2.5 0.6,-0.1 1.2,-0.1 1.8,-0.2 l 0.6,-0.1 0.6,-0.2 c 10.1,-3.1 39,-11.2 50.7,-11.7 2.6,-0.1 5.4,0.7 8,2.1 -18.8,3.2 -47.6,11.2 -67.1,31.9 -3,3.2 -2.9,8.3 0.3,11.3 1.5,1.5 3.5,2.2 5.5,2.2 2.1,0 4.2,-0.8 5.8,-2.5 21.6,-22.9 59,-27.7 71,-28.6 0.9,1.1 1.6,2.2 2.3,3.2 0.6,1 1.2,1.9 1.6,2.8 -12.6,0.9 -37.9,4.1 -48.2,19.3 z"
   class="st0"
   inkscape:connector-curvature="0"
   style="fill:#c9cbcf" />

	</g>

</g>
      <g
         id="g4136">
	<path
   id="path4128"
   d="m 506.3,226.4 c -1.8,-2.6 -6.6,-9.5 -13.5,-15.6 -8.8,-7.7 -17.7,-11.5 -26.3,-11.1 -15.2,0.6 -48.8,10.6 -54.1,12.2 -0.2,0 -0.4,0.1 -0.7,0.1 -9.5,1 -18.6,-4.7 -22.2,-13.8 -0.1,-0.1 -0.1,-0.3 -0.1,-0.4 -5,-13 -12.9,-32 -22.5,-49.2 -4.1,-7.4 -9.3,-15.3 -15.5,-23.4 C 339.6,109.7 322.6,99 303.6,95.1 303,95 302.2,94.8 301.3,94.6 c -8.7,-1.8 -26.7,-5.7 -45.2,-5.7 -18.6,0 -36.6,3.8 -45.2,5.7 -0.9,0.2 -1.6,0.3 -2.3,0.5 -19.1,3.9 -36,14.6 -47.8,30.1 -6.2,8.1 -11.4,15.9 -15.5,23.4 -9.6,17.2 -17.5,36.2 -22.5,49.2 0,0.1 -0.1,0.2 -0.1,0.3 -3.6,9.1 -12.7,14.8 -22.2,13.9 -0.2,0 -0.4,0 -0.7,-0.1 -5.2,-1.6 -38.9,-11.5 -54.1,-12.2 -19.9,-0.8 -35.5,20.2 -39.9,26.7 -2,2.9 -8.1,13.2 -4.7,20.8 1.5,3.4 4.5,5.6 8.2,6.2 0.8,0.1 1.9,0.2 3.6,0.3 21.7,1.6 35,5.9 39.7,12.8 6.7,10 33,39.3 72.6,55.3 2,0.8 3.5,2.4 4.3,4.4 4.8,12.4 14.8,35.1 27.3,48.7 l 1.6,1.8 c 16.8,18.4 42.2,46.3 97.6,46.3 v -16 c -48.3,0 -70,-23.8 -85.8,-41.1 l -1.6,-1.8 c -11,-12.1 -20.5,-34.4 -24.1,-43.6 -11.2,-32 -13.9,-58.4 -13.4,-78 l 15.6,2.7 c 1.9,0.3 3.9,0.3 5.7,-0.1 2.9,4.3 7.3,8.5 13.1,12.2 8.9,5.6 19.3,9.1 27.2,9.1 1.6,0 3.3,-0.2 5.1,-0.5 -7.4,8.9 -15.6,19.5 -21,28.6 -11.8,19.9 -20.5,42.4 -20.9,43.3 -1.6,4.1 0.4,8.8 4.6,10.4 1,0.4 1.9,0.5 2.9,0.5 3.2,0 6.2,-1.9 7.5,-5.1 0.1,-0.2 8.7,-22.2 19.8,-40.9 8.3,-14.1 24.7,-32.8 32.2,-41.1 0.4,0.2 0.8,0.4 1.2,0.5 14.8,5.6 26.5,1.8 32.1,-1 3.5,1.7 9.4,3.9 16.9,3.9 4.5,0 9.7,-0.8 15.2,-2.9 0.4,-0.2 0.8,-0.3 1.2,-0.5 7.5,8.3 23.8,27 32.2,41.1 11.1,18.7 19.7,40.7 19.8,40.9 1.2,3.2 4.3,5.1 7.5,5.1 1,0 1.9,-0.2 2.9,-0.5 4.1,-1.6 6.2,-6.2 4.6,-10.4 -0.4,-0.9 -9.1,-23.4 -20.9,-43.3 -5.4,-9.1 -13.6,-19.7 -21,-28.6 1.8,0.3 3.5,0.5 5.1,0.5 7.9,0 18.3,-3.5 27.2,-9.1 5.8,-3.7 10.2,-7.8 13.1,-12.2 1.8,0.4 3.8,0.4 5.7,0.1 l 15.7,-2.7 c 0.4,18.4 -2,45.1 -13.5,78 -3.6,9.2 -13.1,31.5 -24.1,43.6 l -1.6,1.8 C 326,383.3 304.4,407 256,407 v 16 c 55.4,0 80.8,-27.9 97.6,-46.3 l 1.6,-1.8 c 12.4,-13.6 22.4,-36.4 27.3,-48.7 0.8,-2 2.4,-3.6 4.3,-4.4 39.7,-16 65.9,-45.3 72.6,-55.3 4.6,-6.9 18,-11.1 39.7,-12.8 1.6,-0.1 2.7,-0.2 3.6,-0.3 3.7,-0.5 6.7,-2.8 8.2,-6.2 3.5,-7.6 -2.7,-17.8 -4.6,-20.8 z M 65.8,257.5 C 60.7,250 51.6,244.6 38.5,241.3 c -7.9,-2 -15.6,-2.8 -21,-3.3 0.4,-0.9 1,-1.8 1.6,-2.8 0.7,-1 1.4,-2.1 2.3,-3.2 12,1 49.4,5.7 71,28.6 1.6,1.7 3.7,2.5 5.8,2.5 2,0 3.9,-0.7 5.5,-2.2 3.2,-3 3.4,-8.1 0.3,-11.3 C 84.5,229 55.7,220.9 36.9,217.7 c 2.7,-1.4 5.4,-2.2 8,-2.1 11.7,0.5 40.6,8.6 50.7,11.7 l 0.6,0.2 0.6,0.1 c 0.6,0.1 1.2,0.2 1.8,0.2 6.1,0.6 12.1,-0.3 17.5,-2.5 -2.2,18.1 -2.3,44.4 6.3,77.6 C 91.5,288.2 70.9,265.1 65.8,257.5 Z m 66.5,-31 c 0.1,-0.4 0.1,-0.8 0.2,-1.2 3.1,-4.6 14.3,-20.8 29,-30.1 16.5,-10.4 27.7,-10.4 33.1,-10.4 h 0.5 c 5.2,0 24.3,8.7 32.6,20.1 1.6,2.2 3.9,3.6 6.6,4.9 -2.1,2.3 -4.3,4.8 -6.4,7.4 -6.7,-6.8 -17.7,-13.5 -35.2,-13.5 -27.2,0 -39.4,18 -43.4,25.7 z m 32.5,8.2 c 4.4,-7.2 12.6,-14.9 28,-14.9 11.6,0 20.3,3.7 25.9,11.1 l 0.3,0.4 0.4,0.4 c 0,0 0.2,0.2 0.4,0.6 -1.4,6.9 -17.8,18.1 -27.1,18.1 -9.5,0 -25.5,-9.3 -27.9,-15.7 z m 98.3,12.1 c -4.4,-2.2 -9.7,-2.2 -14.1,0 -3.5,1.7 -9,3.2 -16,1.5 2.9,-5.7 3.7,-10.9 3.3,-15.3 5,-7.7 11.6,-14.4 16.4,-18.9 2.3,-2 3.3,-5 2.8,-7.9 -0.9,-5.5 -5.8,-7.4 -11,-9.4 -1.3,-0.5 -3.4,-1.3 -4.4,-1.9 -10.7,-14 -33.4,-25.9 -45,-25.9 h -0.5 c -6.4,0 -21.3,0 -41.7,12.8 -3.2,2 -6.3,4.3 -9.2,6.7 4.3,-10.1 9.5,-21.5 15.4,-32.1 3.8,-6.8 8.5,-14 14.2,-21.4 9.5,-12.4 23.1,-21 38.3,-24.1 0.7,-0.1 1.5,-0.3 2.4,-0.5 8.1,-1.7 25,-5.3 41.9,-5.3 16.9,0 33.8,3.6 41.9,5.3 0.9,0.2 1.7,0.4 2.4,0.5 15.3,3.1 28.9,11.7 38.3,24.1 5.7,7.5 10.5,14.7 14.2,21.4 5.9,10.6 11.1,22 15.4,32.1 -2.9,-2.4 -5.9,-4.7 -9.2,-6.7 -20.4,-12.9 -35.3,-12.9 -41.7,-12.8 h -0.5 c -11.6,0 -34.3,11.9 -45,25.9 -1,0.5 -3.1,1.4 -4.4,1.9 -5.2,2 -10.1,3.9 -11,9.4 -0.5,3 0.6,5.9 2.8,7.9 4.8,4.5 11.3,11.2 16.4,18.9 -0.4,4.4 0.3,9.6 3.3,15.2 -6.8,1.8 -12.3,0.3 -15.7,-1.4 z m 56.2,3.6 c -9.2,0 -25.5,-11.2 -27,-18.1 0.2,-0.3 0.3,-0.5 0.4,-0.7 l 0.6,-0.8 c 5.6,-7.4 14.3,-11.1 25.9,-11.1 15.3,0 23.6,7.7 28,14.9 -2.4,6.5 -18.4,15.8 -27.9,15.8 z m 43.3,-20.9 c -4,-7.7 -16.2,-25.7 -43.4,-25.7 -17.5,0 -28.5,6.6 -35.2,13.5 -2.1,-2.7 -4.3,-5.1 -6.4,-7.4 2.7,-1.2 5,-2.7 6.6,-4.9 8.3,-11.4 27.4,-20.1 32.6,-20.1 h 0.5 c 5.4,0 16.7,0 33.1,10.4 14.8,9.3 26.2,25.7 29.1,30.2 0,0.3 0.1,0.7 0.1,1.1 z m 83.6,28 c -5.1,7.6 -25.7,30.7 -56.7,45.6 8.6,-33.3 8.5,-59.6 6.3,-77.6 5.4,2.2 11.4,3.1 17.5,2.5 0.6,-0.1 1.2,-0.1 1.8,-0.2 l 0.6,-0.1 0.6,-0.2 c 10.1,-3.1 39,-11.2 50.7,-11.7 0.2,0 0.3,0 0.5,0 2.5,0 5,0.8 7.6,2.1 -18.8,3.2 -47.6,11.2 -67.1,31.9 -3,3.2 -2.9,8.3 0.3,11.3 1.5,1.5 3.5,2.2 5.5,2.2 2.1,0 4.2,-0.8 5.8,-2.5 21.6,-22.9 59,-27.7 71,-28.6 0.9,1.1 1.6,2.2 2.3,3.2 0.6,1 1.2,1.9 1.6,2.8 -12.7,0.9 -38,4.1 -48.3,19.3 z"
   class="st1"
   inkscape:connector-curvature="0"
   style="fill:#555e6b" />

	<path
   id="path4130"
   d="m 256.1,325.6 c 13,0 21.2,-2.2 28.4,-4.2 5.5,-1.5 9.8,-2.6 15.5,-2.6 2.9,0 5.7,1.4 7.5,3.7 l 6.1,8.2 c 1.6,2.1 4,3.2 6.4,3.2 1.7,0 3.3,-0.5 4.8,-1.6 3.5,-2.6 4.3,-7.7 1.6,-11.2 l -6.1,-8.2 c -4.8,-6.4 -12.3,-10.2 -20.3,-10.2 -7.8,0 -13.8,1.6 -19.6,3.2 -6.6,1.8 -13.4,3.6 -24.3,3.6 -10.9,0 -17.7,-1.8 -24.3,-3.6 -5.8,-1.6 -11.8,-3.2 -19.6,-3.2 -7.9,0 -15.5,3.8 -20.3,10.2 l -6.1,8.2 c -2.6,3.5 -1.9,8.6 1.6,11.2 1.4,1.1 3.1,1.6 4.8,1.6 2.4,0 4.8,-1.1 6.4,-3.2 l 6.1,-8.2 c 1.8,-2.3 4.6,-3.7 7.5,-3.7 5.7,0 10,1.2 15.5,2.6 7.2,2 15.4,4.2 28.4,4.2 0,0 0,0 0,0 0,0 0.1,0 0.1,0 0,0 -0.1,0 -0.1,0 0,0 0,0 0,0 z"
   class="st1"
   inkscape:connector-curvature="0"
   style="fill:#555e6b" />

	<circle
   id="circle4132"
   r="10"
   cy="233.5"
   cx="319.60001"
   class="st1"
   style="fill:#555e6b" />

	<circle
   id="circle4134"
   r="10"
   cy="233.5"
   cx="192.39999"
   class="st1"
   style="fill:#555e6b" />

</g>
    </g>
    <g
       id="g4199"
       transform="matrix(0.07411877,0,0,0.07411877,5.7877843,193.66277)">
      <g
         id="g4170">
	<g
   id="g4160">
		<path
   id="path4158"
   d="m 350,235 c 10.5,0 19,8.5 19,19 0,10.5 -8.5,19 -19,19 -10.5,0 -19,-8.5 -19,-19 0,-10.5 8.5,-19 19,-19 z"
   class="st0"
   inkscape:connector-curvature="0"
   style="fill:#c9cbcf" />

	</g>

	<g
   id="g4164">
		<path
   id="path4162"
   d="m 54,249.2 12,-12.4 v 99.2 7.3 10.4 L 54,342.5 Z M 311.1,482 v -55 c 0,-8.8 -7.2,-16 -16,-16 H 219 c -8.8,0 -16,7.2 -16,16 v 55 H 190.9 V 349.8 l 22,-17.8 h 44.1 44.2 l 22,17.8 V 482 Z M 460,342.5 448,353.7 V 343.3 336 236.8 l 12,12.4 z"
   class="st0"
   inkscape:connector-curvature="0"
   style="fill:#c9cbcf" />

	</g>

	<g
   id="g4168">
		<path
   id="path4166"
   d="m 164,273 c -10.5,0 -19,-8.5 -19,-19 0,-10.5 8.5,-19 19,-19 10.5,0 19,8.5 19,19 0,10.5 -8.5,19 -19,19 z"
   class="st0"
   inkscape:connector-curvature="0"
   style="fill:#c9cbcf" />

	</g>

</g>
      <g
         id="g4178">
	<path
   id="path4172"
   d="m 350,289 c 19.3,0 35,-15.7 35,-35 0,-19.3 -15.7,-35 -35,-35 -19.3,0 -35,15.7 -35,35 0,19.3 15.7,35 35,35 z m 0,-54 c 10.5,0 19,8.5 19,19 0,10.5 -8.5,19 -19,19 -10.5,0 -19,-8.5 -19,-19 0,-10.5 8.5,-19 19,-19 z"
   class="st1"
   inkscape:connector-curvature="0"
   style="fill:#555e6b" />

	<path
   id="path4174"
   d="M 471.5,238.1 448,213.8 V 167.7 C 448,75.8 373.2,1 281.3,1 H 232.6 C 140.8,1 66,75.8 66,167.7 v 46.1 l -23.5,24.4 c -2.9,3 -4.5,6.9 -4.5,11.1 v 93.3 c 0,4.4 1.9,8.7 5.1,11.7 l 23.4,21.8 c 0.3,1.1 0.7,2.2 1.2,3.2 l 21.9,43.9 c 2.7,5.5 8.2,8.8 14.3,8.8 H 118 l 18.6,37.2 c 2.7,5.5 8.2,8.8 14.3,8.8 h 23.9 v 4 c 0,8.8 7.2,16 16,16 H 203 c 0.5,8.4 7.5,15 15.9,15 H 295 c 8.5,0 15.4,-6.6 15.9,-15 H 323 c 8.8,0 16,-7.2 16,-16 v -4 h 23.9 c 6.1,0 11.6,-3.4 14.3,-8.8 L 395.8,432 h 14.1 c 6.1,0 11.6,-3.4 14.3,-8.8 l 21.9,-43.9 c 0.5,-1 0.9,-2.1 1.2,-3.2 l 23.4,-21.8 c 3.2,-3 5.1,-7.3 5.1,-11.7 v -93.3 c 0.2,-4.2 -1.4,-8.2 -4.3,-11.2 z M 82,167.7 C 82,84.6 149.6,17 232.7,17 h 48.7 c 83,0 150.6,67.6 150.6,150.7 v 161.1 l -98.1,9.2 -22.7,-18.4 c -2.8,-2.3 -6.4,-3.6 -10.1,-3.6 h -88.3 c -3.7,0 -7.2,1.3 -10.1,3.6 L 180.1,338 82,328.7 Z m -28,81.5 12,-12.4 v 99.2 7.3 10.4 L 54,342.5 Z M 150.9,462 132.3,424.8 C 129.6,419.3 124.1,416 118,416 H 103.9 L 82,372.1 v -27.3 l 92.9,8.8 V 462 Z m 114.2,-35 v 70 H 249 v -70 z m -32.2,70 h -14 v -70 h 14 z m 62.2,0 h -14 v -70 h 14 z m 16,-15 v -55 c 0,-8.8 -7.2,-16 -16,-16 H 219 c -8.8,0 -16,7.2 -16,16 v 55 H 190.9 V 349.8 l 22,-17.8 h 88.3 l 22,17.8 V 482 Z m 99,-66 H 396 c -6.1,0 -11.6,3.4 -14.3,8.8 L 363.1,462 H 339.2 V 353.5 l 92.9,-8.8 V 372 Z M 460,342.5 448,353.7 V 343.3 336 236.8 l 12,12.4 z"
   class="st1"
   inkscape:connector-curvature="0"
   style="fill:#555e6b" />

	<path
   id="path4176"
   d="m 199,254 c 0,-19.3 -15.7,-35 -35,-35 -19.3,0 -35,15.7 -35,35 0,19.3 15.7,35 35,35 19.3,0 35,-15.7 35,-35 z m -35,19 c -10.5,0 -19,-8.5 -19,-19 0,-10.5 8.5,-19 19,-19 10.5,0 19,8.5 19,19 0,10.5 -8.5,19 -19,19 z"
   class="st1"
   inkscape:connector-curvature="0"
   style="fill:#555e6b" />

</g>
    </g>
    <g
       id="g4268"
       transform="matrix(0.11506489,0,0,0.11506489,75.242793,217.22287)">
      <g
         id="g4240">
	<g
   id="g4238">
		<path
   id="path4236"
   d="m 92.7,40.9 c -1.3,1.5 -3,2.6 -5,2.9 L 53.4,49 V 21.3 h 55.2 z m -55.8,231 c 0,-4.4 3.6,-8 8,-8 h 17.3 c -4.1,31.3 -9.4,63.3 -13.4,87.2 -0.6,3.7 -1.2,7.1 -1.7,10.3 C 40.5,348 36.8,333.3 36.8,318.8 v -46.9 z m 266.9,212.3 -9,-194.9 c 65.6,-8.5 109.6,-28.8 118,-32.8 3.6,-1.8 5.8,-5.5 5.6,-9.5 l -0.8,-16.5 c -0.3,-5.4 -4.7,-9.5 -10.3,-9.5 H 104.8 c -5.6,0 -10,4.1 -10.3,9.5 L 93.7,247 c -0.2,4 2,7.7 5.6,9.5 8.3,4.1 52.4,24.3 118,32.8 l -9,194.9 -15.9,-10.6 c 1.2,-17.1 3,-80.3 -31.5,-143.7 -15.2,-28 -43.2,-43.1 -70.2,-57.6 -4.1,-2.2 -8.3,-4.5 -12.5,-6.8 2,-15.1 3.6,-30.1 4.7,-43.9 v -26.8 h 346.2 v 26.2 0.6 c 1.1,14 2.8,29.1 4.8,44.4 -0.5,0.3 -1.1,0.6 -1.6,0.9 -30,17.1 -58.4,33.2 -80,67.5 -34.9,52.3 -33.1,119.9 -31.8,138.7 z M 475.1,318.8 c 0,14.5 -3.6,29.2 -10.3,42.6 -0.5,-3.2 -1.1,-6.7 -1.7,-10.3 -4,-23.8 -9.3,-55.9 -13.4,-87.2 H 467 c 4.4,0 8,3.6 8,8 v 46.9 z"
   class="st0"
   inkscape:connector-curvature="0"
   style="fill:#c9cbcf" />

	</g>

</g>
      <g
         id="g4250">
	<path
   id="path4242"
   d="m 393.1,168.8 c 4.4,0 8,-3.6 8,-8 v -30 c 0,-4.4 -3.6,-8 -8,-8 -4.4,0 -8,3.6 -8,8 v 30 c 0,4.5 3.6,8 8,8 z"
   class="st1"
   inkscape:connector-curvature="0"
   style="fill:#555e6b" />

	<path
   id="path4244"
   d="m 365.1,168.8 c 4.4,0 8,-3.6 8,-8 v -30 c 0,-4.4 -3.6,-8 -8,-8 -4.4,0 -8,3.6 -8,8 v 30 c 0,4.5 3.6,8 8,8 z"
   class="st1"
   inkscape:connector-curvature="0"
   style="fill:#555e6b" />

	<path
   id="path4246"
   d="m 337.1,168.8 c 4.4,0 8,-3.6 8,-8 v -30 c 0,-4.4 -3.6,-8 -8,-8 -4.4,0 -8,3.6 -8,8 v 30 c 0,4.5 3.6,8 8,8 z"
   class="st1"
   inkscape:connector-curvature="0"
   style="fill:#555e6b" />

	<path
   id="path4248"
   d="m 467.1,247.9 h -19.3 c -1.1,-9.4 -2,-18.6 -2.7,-27.3 v -33.9 c 0,-43.3 -18.3,-80.2 -53,-106.5 -33.9,-25.8 -81,-39.5 -136.1,-39.5 -55.1,0 -102.2,13.6 -136.1,39.5 -34.7,26.4 -53,63.2 -53,106.5 v 33.9 c -0.7,8.7 -1.6,17.9 -2.7,27.3 H 53.4 V 65.2 l 36.7,-5.6 c 5.9,-0.9 11.2,-4 15,-8.6 l 25.2,-31 c 2.2,-2.7 2.6,-6.4 1.1,-9.5 -1.5,-3.1 -4.7,-5.1 -8.1,-5.1 H 47.4 c -4.8,0 -8.9,3.4 -9.8,8 h -0.2 v 2 52.3 181.5 c -9.6,3.2 -16.5,12.2 -16.5,22.8 v 46.9 c 0,30.1 13.4,60.9 35.9,82.3 2,2.1 4.2,4 6.7,5.6 l 143.6,95.8 c 4,2.6 8.6,4 13.3,4 h 71.2 c 4.8,0 9.4,-1.4 13.3,-4 l 143.6,-95.8 c 2.5,-1.6 4.7,-3.5 6.7,-5.6 22.5,-21.4 35.9,-52.2 35.9,-82.3 V 272 c 0,-13.3 -10.8,-24.1 -24,-24.1 z M 92.7,40.9 c -1.3,1.5 -3,2.6 -5,2.9 L 53.4,49 V 21.3 h 55.2 z m 36.9,52 C 160.7,69.2 204.4,56.7 256,56.7 c 51.6,0 95.3,12.5 126.4,36.2 28.4,21.6 44.3,51.1 46.4,85.8 H 83.2 c 2.1,-34.7 18,-64.2 46.4,-85.8 z m -92.7,179 c 0,-4.4 3.6,-8 8,-8 h 17.3 c -4.1,31.3 -9.4,63.3 -13.4,87.2 -0.6,3.7 -1.2,7.1 -1.7,10.3 C 40.5,348 36.8,333.3 36.8,318.8 V 271.9 Z M 62,369.7 c 0.8,-4.7 1.7,-10.1 2.6,-16 3.3,-19.8 7.5,-45.3 11.2,-71.3 2.4,1.3 4.8,2.6 7.2,3.9 26.1,14.1 50.8,27.4 63.7,51.2 27.5,50.6 30.3,102.2 29.9,125.6 L 72.4,393.5 C 64.6,388.3 60.5,379 62,369.7 Z m 226.1,121 H 224 l 9.5,-206.2 c 0.2,-5.2 -3.6,-9.8 -8.8,-10.4 -59.4,-7 -101.1,-24.1 -114.8,-30.3 l 0.3,-6.7 h 291.6 l 0.3,6.7 c -13.8,6.3 -55.4,23.3 -114.8,30.3 -5.2,0.6 -9.1,5.2 -8.8,10.4 z m 15.7,-6.5 -9,-194.9 c 65.6,-8.5 109.6,-28.8 118,-32.8 3.6,-1.8 5.8,-5.5 5.6,-9.5 l -0.8,-16.5 c -0.3,-5.4 -4.7,-9.5 -10.3,-9.5 H 104.8 c -5.6,0 -10,4.1 -10.3,9.5 L 93.7,247 c -0.2,4 2,7.7 5.6,9.5 8.3,4.1 52.4,24.3 118,32.8 l -9,194.9 -15.9,-10.6 c 1.2,-17.1 3,-80.3 -31.5,-143.7 -15.2,-28 -43.2,-43.1 -70.2,-57.6 -4.1,-2.2 -8.3,-4.5 -12.5,-6.8 2,-15.1 3.6,-30.1 4.7,-43.9 v -26.8 h 346.2 v 26.2 0.6 c 1.1,14 2.8,29.1 4.8,44.4 -0.5,0.3 -1.1,0.6 -1.6,0.9 -30,17.1 -58.4,33.2 -80,67.5 -34.9,52.3 -33.1,119.9 -31.8,138.7 z m 135.8,-90.7 -103.5,69.1 c -0.5,-24.7 2,-78.2 29.6,-119.5 l 0.1,-0.2 c 18.6,-29.6 42.6,-44.1 70.4,-60 3.7,25.9 7.9,51.1 11.1,70.7 1,5.9 1.9,11.3 2.6,16 1.6,9.4 -2.5,18.7 -10.3,23.9 z m 35.5,-74.7 c 0,14.5 -3.6,29.2 -10.3,42.6 -0.5,-3.2 -1.1,-6.6 -1.7,-10.3 -4,-23.8 -9.3,-55.9 -13.4,-87.2 H 467 c 4.4,0 8,3.6 8,8 v 46.9 z"
   class="st1"
   inkscape:connector-curvature="0"
   style="fill:#555e6b" />

</g>
    </g>
  </g>
  <style
     id="style3713"
     type="text/css">
	.st0{fill:#C9CBCF;}
	.st1{fill:#555E6B;}
</style>
  <style
     id="style3766"
     type="text/css">
	.st0{fill:#C9CBCF;}
	.st1{fill:#555E6B;}
</style>
  <style
     id="style4120"
     type="text/css">
	.st0{fill:#C9CBCF;}
	.st1{fill:#555E6B;}
</style>
  <style
     id="style4156"
     type="text/css">
	.st0{fill:#C9CBCF;}
	.st1{fill:#555E6B;}
</style>
  <style
     id="style4201"
     type="text/css">
	.st0{fill:#C9CBCF;}
	.st1{fill:#555E6B;}
</style>
  <style
     id="style4234"
     type="text/css">
	.st0{fill:#C9CBCF;}
	.st1{fill:#555E6B;}
</style>
</svg>
